<?xml version="1.0" encoding="iso-8859-1"?>
<!-- Generator: Adobe Illustrator 19.0.0, SVG Export Plug-In . SVG Version: 6.00 Build 0)  -->
<svg version="1.1" id="Capa_1" fill="#fff" xmlns="http://www.w3.org/2000/svg" xmlns:xlink="http://www.w3.org/1999/xlink" x="0px" y="0px"
	 viewBox="0 0 512 512" style="enable-background:new 0 0 512 512;" xml:space="preserve">
<g>
	<g>
		<path d="M430.028,324.108l-21.421-21.422l7.743-32.191c3.461-14.369-5.415-28.877-19.788-32.34
			c-14.377-3.458-28.889,5.421-32.349,19.799l-6.314,26.253h-15.112l0.308-24.381l22.142-47.972
			c3.005-6.503,3.296-13.786,0.82-20.509c-2.475-6.721-7.418-12.077-13.926-15.084c-13.429-6.191-29.388-0.304-35.575,13.116
			l-8.426,18.246l-1.437-1.437c-10.453-10.453-27.461-10.453-37.914,0c-5.065,5.064-7.854,11.799-7.854,18.961
			c0,7.165,2.791,13.897,7.853,18.952l20.627,20.636l-0.463,36.552l-48.72,59.443v-136.74l65.697-65.703
			c2.97-2.97,2.97-7.784,0-10.754c-2.971-2.97-7.784-2.97-10.754,0l-67.925,67.931c-1.426,1.426-2.226,3.36-2.226,5.376v161.161
			c0,3.213,2.02,6.079,5.045,7.161c3.025,1.082,6.404,0.145,8.44-2.34l63.894-77.956c1.093-1.333,1.701-2.999,1.723-4.724
			l0.537-42.42c0.025-2.049-0.777-4.022-2.225-5.472l-22.898-22.908c-2.191-2.187-3.396-5.098-3.396-8.196
			c0-3.1,1.208-6.015,3.4-8.208c4.524-4.523,11.884-4.523,16.408,0l9.145,9.145c1.757,1.758,4.266,2.546,6.711,2.11
			c2.447-0.436,4.527-2.041,5.569-4.298l13-28.149c1.298-2.812,3.613-4.953,6.523-6.025c2.911-1.073,6.063-0.948,8.871,0.346
			c2.817,1.302,4.958,3.621,6.029,6.532c1.072,2.91,0.946,6.061-0.356,8.877l-22.822,49.446c-0.447,0.969-0.686,2.023-0.7,3.09
			l-0.426,33.701c-0.025,2.033,0.764,3.992,2.193,5.438s3.378,2.261,5.411,2.261h28.804c3.514,0,6.571-2.409,7.393-5.826
			l7.715-32.078c1.497-6.224,7.782-10.071,14.003-8.571c6.219,1.498,10.061,7.776,8.562,13.996l-8.74,36.337
			c-0.618,2.573,0.145,5.283,2.017,7.155l24.434,24.434c4.526,4.526,4.526,11.892,0,16.417c-2.193,2.193-5.108,3.401-8.209,3.401
			c-3.095,0-6.006-1.208-8.199-3.399l-26.431-26.431c-1.425-1.427-3.36-2.227-5.377-2.227h-46.333c-2.279,0-4.437,1.022-5.881,2.784
			l-92.109,112.388c-1.113,1.359-1.723,3.063-1.723,4.82v54.181h-23.217v-75.054c0-4.199-3.405-7.604-7.604-7.604
			c-4.199,0-7.604,3.405-7.604,7.604v82.202c0,0.317,0.005,0.634,0.025,0.951c0.261,3.999,3.58,7.109,7.588,7.109h38.405
			c4.008,0,7.327-3.11,7.586-7.108c0.02-0.317,0.025-0.634,0.025-0.951V445.33l88.105-107.501h39.584l24.204,24.205
			c5.064,5.065,11.795,7.854,18.952,7.854c7.163,0,13.897-2.789,18.963-7.854C440.484,351.577,440.484,334.564,430.028,324.108z"/>
	</g>
</g>
<g>
	<g>
		<path d="M379.996,88.323L357.792,78.12V26.817C357.792,12.03,345.761,0,330.975,0c-14.786,0-26.817,12.03-26.817,26.817v57.388
			l-27.501,27.501l-0.911-4.42c-1.444-7.015-5.534-13.048-11.513-16.988c-5.982-3.941-13.138-5.314-20.148-3.871
			c-14.482,2.981-23.839,17.189-20.858,31.672l8.034,39.005l-10.737,10.743l-30.658-60.042l-11.542-55.751
			c-1.452-7.015-5.546-13.045-11.529-16.979c-5.984-3.935-13.142-5.301-20.159-3.852c-7.016,1.452-13.044,5.549-16.976,11.538
			c-3.93,5.986-5.295,13.145-3.845,20.159l5.592,27.052h-14.094c-14.786,0-26.817,12.025-26.817,26.807
			c0,14.787,12.03,26.817,26.817,26.817h30.607l38.67,75.729v66.915l-14.295-18.321l-16.97-58.424
			c-4.123-14.192-19.028-22.391-33.229-18.28c-14.198,4.124-22.394,19.031-18.27,33.227l12.683,43.675l-29.498,17.96
			c-6.119,3.723-10.42,9.607-12.113,16.569c-1.691,6.959-0.572,14.16,3.153,20.274c4.911,8.061,13.478,12.874,22.918,12.874
			c4.91,0,9.724-1.351,13.92-3.907l26.639-16.219l45.06,57.74v22.985c0,4.199,3.405,7.604,7.604,7.604s7.604-3.405,7.602-7.609
			v-25.6c0-1.695-0.566-3.342-1.609-4.678l-50.835-65.141c-2.375-3.042-6.651-3.823-9.949-1.817l-32.424,19.741
			c-1.813,1.105-3.891,1.689-6.01,1.689c-4.09,0-7.802-2.086-9.93-5.578c-1.611-2.645-2.096-5.76-1.364-8.771
			c0.732-3.011,2.592-5.558,5.242-7.169l34.471-20.987c2.933-1.786,4.305-5.318,3.348-8.616l-14.307-49.264
			c-1.785-6.145,1.763-12.597,7.902-14.381c6.151-1.78,12.603,1.772,14.389,7.916l17.378,59.828c0.27,0.928,0.713,1.796,1.307,2.557
			l28.794,36.905c1.997,2.559,5.398,3.57,8.469,2.513c3.07-1.055,5.131-3.944,5.131-7.19v-90.852c0-1.202-0.285-2.388-0.831-3.458
			l-41.619-81.504c-1.3-2.544-3.916-4.146-6.773-4.146h-35.262c-6.401,0-11.609-5.208-11.609-11.609
			c0-6.395,5.208-11.599,11.609-11.599h23.43c2.286,0,4.452-1.029,5.896-2.802c1.444-1.773,2.014-4.102,1.55-6.341l-7.482-36.196
			c-0.629-3.04-0.039-6.141,1.664-8.733c1.701-2.59,4.309-4.363,7.343-4.99c6.266-1.296,12.417,2.75,13.714,9.019l11.751,56.756
			c0.138,0.666,0.365,1.31,0.674,1.916l35.881,70.271c1.107,2.168,3.184,3.674,5.587,4.053c2.406,0.381,4.843-0.414,6.564-2.135
			l21.028-21.038c1.808-1.809,2.585-4.404,2.069-6.909l-8.86-43.017c-0.626-3.036-0.03-6.135,1.675-8.724
			c1.705-2.589,4.317-4.36,7.356-4.985c3.03-0.626,6.125-0.03,8.713,1.675c2.589,1.706,4.36,4.318,4.985,7.358l3.761,18.239
			c0.564,2.738,2.586,4.946,5.265,5.749c2.679,0.804,5.58,0.071,7.558-1.907l39.703-39.703c1.426-1.426,2.227-3.36,2.227-5.377
			V26.817c0-6.401,5.207-11.609,11.609-11.609s11.609,5.208,11.609,11.609v56.177c0,2.971,1.73,5.669,4.43,6.909l26.634,12.237
			c5.813,2.671,8.37,9.579,5.709,15.384c-1.897,4.114-6.044,6.774-10.563,6.774c-1.67,0-3.301-0.359-4.834-1.06l-25.681-11.801
			c-2.893-1.329-6.304-0.717-8.553,1.533l-17.069,17.071c-2.97,2.97-2.969,7.784,0.001,10.754c2.969,2.97,7.783,2.97,10.753,0
			l13.327-13.329l20.887,9.598c3.545,1.62,7.304,2.442,11.17,2.442c10.434,0,20-6.129,24.381-15.629
			C399.332,110.442,393.422,94.492,379.996,88.323z"/>
	</g>
</g>
<g>
</g>
<g>
</g>
<g>
</g>
<g>
</g>
<g>
</g>
<g>
</g>
<g>
</g>
<g>
</g>
<g>
</g>
<g>
</g>
<g>
</g>
<g>
</g>
<g>
</g>
<g>
</g>
<g>
</g>
</svg>
